<svg width="172" height="208" viewBox="0 0 172 208" fill="none" xmlns="http://www.w3.org/2000/svg">
<g filter="url(#filter0_d_1030_304)">
<path d="M107.975 27.5846C102.935 25.8965 98.4681 25.1107 95.0374 24.731C92.0691 24.402 86.1588 23.9659 78.848 25.0618C76.1674 25.4641 72.7554 25.9961 68.4975 27.5827C64.7134 28.9926 61.9331 30.6149 59.8728 31.8293C56.912 33.5738 54.5509 35.2751 52.8402 36.606C51.9586 37.2283 51.7255 38.2547 52.1108 38.8619C52.4379 39.3769 53.1203 39.4484 53.2387 39.4597C54.5415 38.2923 56.0416 37.076 57.7504 35.8766C60.6924 33.8126 63.5197 32.32 65.9767 31.2315C67.8866 30.4589 70.4225 29.5509 73.4735 28.7764C75.2895 28.3159 79.5191 27.3365 85.0835 27.0507C87.3036 26.9379 90.6517 26.8872 94.7046 27.3158C98.8779 27.7575 102.442 28.5659 105.254 29.3723L106.847 30.2352C107.491 30.4269 108.164 30.2314 108.505 29.7709C108.96 29.1562 108.789 28.1166 107.975 27.5808V27.5846Z" fill="#FFB84C"/>
<path d="M133.407 56.1042C133.524 56.2302 133.777 56.5403 133.86 57.0103C133.978 57.6814 133.663 58.1946 133.584 58.3149C133.584 58.3149 133.539 58.8018 132.168 58.5367C130.442 57.0009 128.719 55.4669 126.993 53.9311C124.476 51.8632 121.432 49.6601 117.836 47.5678C115.561 46.2444 113.373 45.1428 111.328 44.2235C107.014 42.2929 101.158 40.2777 94.039 39.4618C90.9955 39.1122 88.1814 39.0351 85.6567 39.1141C81.8068 39.1216 76.0112 39.5953 69.5783 42.0824C67.5894 42.8512 65.1775 43.9547 62.5457 45.5657C54.0168 50.788 39.6434 63.5221 38.2618 64.1105C37.835 64.2929 37.4045 64.3041 37.4045 64.3041C36.959 64.3173 36.5849 64.1914 36.3161 64.0673C36.3161 64.0673 35.6093 63.1386 36.3161 62.3867C39.6246 59.3319 42.5459 56.8543 44.8206 54.9951C48.3754 52.087 52.5167 48.722 58.301 45.0488C60.9855 43.3437 63.0214 42.0504 65.5216 40.8304C73.9565 36.7135 81.788 36.2924 85.8127 36.1138C89.048 35.9709 100.782 35.7266 113.104 41.5598C116.763 43.2911 119.712 45.1992 121.066 46.0808C126.54 49.645 130.627 53.3164 133.407 56.108V56.1042Z" fill="#FFB84C"/>
<path d="M124.324 40.9183C124.657 41.2793 124.784 41.6853 124.784 41.6853C124.961 42.2493 124.828 42.7756 124.722 43.0745C124.722 43.0745 124.489 43.8039 123.096 43.3396C120.94 41.9334 117.671 40.0009 113.447 38.2433C103.563 34.1302 94.9944 33.7072 90.3869 33.5211C88.0408 33.4252 82.4275 33.2222 76.5455 34.2072C76.2315 34.2599 68.9264 35.6378 61.7792 39.1719C58.3823 40.8525 55.5174 42.7737 55.1508 43.0219C54.3462 43.5652 53.5698 44.0896 52.5528 44.8867C50.5546 46.4564 49.6785 47.5204 46.7102 50.2387C45.9207 50.9624 45.1312 51.6843 44.3416 52.408C44.1743 52.5095 43.8623 52.6167 43.46 52.6956C42.9844 52.7896 42.4411 52.7802 42.1685 52.3742C42.1685 52.3742 41.2399 51.0977 42.2023 50.2669C46.8945 46.2496 51.0903 43.3452 54.1225 41.4033C60.655 37.2206 66.6969 33.3519 75.4984 31.4457C80.5026 30.361 84.3487 30.3554 87.8566 30.3516C99.3068 30.3347 107.618 33.0906 110.266 34.0343C112.554 34.8483 114.417 35.6641 115.727 36.2751C120.386 38.4519 123.722 40.2604 124.328 40.9164L124.324 40.9183Z" fill="#FFB84C"/>
<path d="M139.915 72.6157C139.915 72.6157 140.245 74.1421 139.55 74.3414C139.55 74.3414 138.92 74.8715 138.189 74.5407C136.157 71.8506 133.128 68.1416 129.041 64.1187C124.319 59.4699 118.866 54.1893 110.389 50.1796C103.992 47.1549 98.5069 46.0984 96.4654 45.7544C83.3628 43.5456 72.3449 47.0816 66.4685 49.5386C66.4685 49.5386 50.4126 57.6332 33.8924 77.0728L32.7645 78.2177C32.7645 78.2177 31.6705 78.8813 31.0388 78.1688C31.0388 78.1688 30.0444 77.3229 31.0219 76.1461C31.0219 76.1461 44.4347 58.5093 65.2691 46.8598C70.1718 44.6867 79.0805 41.5699 90.3182 42.1996C100.744 42.7842 108.421 46.3278 111.846 47.9501C112.946 48.4708 116.377 50.1345 120.535 52.9655C125.426 56.2967 132.948 62.3517 139.918 72.6195L139.915 72.6157Z" fill="#FFB84C"/>
<path d="M142.784 88.6396C142.784 88.6396 143.778 90.3653 142.784 90.7619C142.784 90.7619 141.855 91.4594 141.257 90.7619C139.567 87.3331 136.951 82.6015 133.08 77.4319C129.411 72.5292 123.388 64.6413 112.96 58.4622C109.979 56.6952 105.093 53.8491 98.4136 52.2719C84.2602 48.9295 71.8889 53.6122 66.129 56.306C66.129 56.306 45.1084 67.5513 30.5884 91.1718C30.5884 91.1718 29.1841 92.123 28.3871 91.5252C28.3871 91.5252 27.1257 90.839 28.1446 89.4028C32.2352 83.4004 36.1283 78.7497 39.0929 75.4693C45.0238 68.903 52.5395 60.7237 64.5048 54.3698C68.757 52.1121 72.9547 49.8826 78.6263 48.6531C94.2723 45.2581 108.187 52.2738 114.577 56.1387C114.577 56.1387 129.593 62.8404 142.786 88.6377L142.784 88.6396Z" fill="#FFB84C"/>
<path d="M144.499 101.615C144.499 101.615 145.317 103.164 144.588 103.606C144.588 103.606 143.725 104.292 142.95 103.717C142.095 102.559 140.85 100.833 139.424 98.6879C137.333 95.5486 135.953 93.1743 135.1 91.7287C131.54 85.6925 128.312 80.8312 127.868 80.1695C121.08 70.0276 111.237 64.0929 110.684 63.7658C107.186 61.7017 96.8844 55.6204 83.5299 57.0792C74.9276 58.0191 68.3425 61.7262 65.5678 63.3241C62.0092 65.3712 59.5184 67.3977 56.7663 69.6385C54.7812 71.2533 49.7827 75.4604 44.2484 81.991C41.8967 84.7657 40.3834 86.8561 37.7346 90.5162C34.0896 95.5542 31.2548 99.8685 29.2978 102.957C29.2978 102.957 28.2151 104.196 27.2187 103.378C27.2187 103.378 26.1134 102.692 27.1304 101.344C29.0892 98.4097 31.8808 94.3116 35.3566 89.4785C40.248 82.6791 42.7633 79.207 46.1714 75.6221C47.8201 73.8888 51.8336 69.8302 57.7081 65.6607C64.2782 60.9968 70.0795 56.8799 78.7494 55.0527C91.0267 52.466 101.067 56.1524 104.265 57.3743C112.56 60.5437 117.828 65.2735 120.217 67.4597C126.793 73.4753 131.38 80.7823 135.013 86.5685C135.562 87.4426 136.98 89.7567 139.459 93.6668C141.14 96.3174 142.821 98.968 144.501 101.619L144.499 101.615Z" fill="#FFB84C"/>
<path d="M144.386 110.075C144.386 110.075 144.961 111.624 144.386 112.066C144.386 112.066 143.988 113.305 142.66 112.288C141.07 110.5 139.48 108.712 137.889 106.924C136.337 104.61 134.028 101.131 131.293 96.8502C126.503 89.3552 125.309 87.0787 123.343 84.2157C120.501 80.08 115.914 74.5288 108.426 68.8949C104.091 66.3984 100.208 65.1408 97.5062 64.4659C94.5604 63.729 84.1799 61.2852 72.6864 65.842C70.0076 66.9041 68.1466 67.9982 66.5431 68.9494C58.8356 73.5231 53.8277 79.0461 50.8801 82.8716C48.9025 85.212 47.3817 87.1915 46.3797 88.5394C43.7385 92.0867 41.3078 95.7749 37.1684 102.069C35.907 103.986 35.3092 104.915 34.2321 106.293C32.0777 109.054 29.9986 111.073 28.5436 112.374C28.5436 112.374 27.2164 112.419 26.9946 111.71C26.9946 111.71 26.331 110.517 27.7014 109.455C27.7014 109.455 33.8937 102.289 39.334 93.7973C40.7758 91.3855 42.9358 88.0393 45.9079 84.321C50.1826 78.9709 56.0741 71.6 66.0505 66.2856C70.299 64.0223 78.0797 59.9994 88.7648 60.2644C99.8353 60.5389 107.612 65.2592 109.308 66.3307C112.415 68.2933 114.421 70.2014 116.833 72.5173C120.568 76.1079 125.441 81.5444 129.964 89.2875C129.964 89.2875 139.694 106.847 144.384 110.077L144.386 110.075Z" fill="#FFB84C"/>
<path d="M128.731 98.7507C128.731 98.7507 134.736 110.361 143.46 116.997C143.46 116.997 144.688 118.324 143.924 119.252C143.759 119.444 143.588 119.559 143.436 119.63C142.58 120.025 141.317 119.491 140.242 118.346C139.486 117.72 138.717 117.057 137.939 116.354C136.865 115.384 135.864 114.423 134.935 113.481C134.935 113.481 129.767 108.25 126.376 100.411C126.231 100.076 126.222 99.8166 126.231 99.6605C126.259 99.1737 126.53 98.7751 126.808 98.4875C126.808 98.4875 128.207 97.792 128.733 98.7526L128.731 98.7507Z" fill="#FFB84C"/>
<path d="M27.2936 117.425C29.1246 115.98 31.1379 114.175 33.1493 111.948C34.3581 110.611 35.4052 109.299 36.3113 108.056C37.6723 106.293 39.0465 104.426 40.4188 102.452C42.5693 99.3582 44.4811 96.3429 46.1805 93.4517C46.1805 93.4517 46.9325 91.9929 48.0829 92.6546C49.2334 93.3182 48.8349 94.2036 48.8349 94.2036C48.8349 94.2036 37.7776 112.162 29.0193 119.328C29.0193 119.328 27.8256 119.991 27.2936 119.328C27.2936 119.328 26.3649 118.709 27.2936 117.425Z" fill="#FFB84C"/>
<path d="M44.3255 105.174C44.3255 105.174 44.9007 103.715 46.2279 104.511C46.2279 104.511 47.6867 105.208 47.025 106.054C47.025 106.054 38.7536 120.478 29.2002 125.742C29.2002 125.742 28.1381 125.918 27.6512 124.99C27.6512 124.99 27.1643 123.663 28.7565 122.867C28.7565 122.867 36.276 118.311 44.3255 105.174Z" fill="#FFB84C"/>
<path d="M43.2547 116.983L44.5818 115.013C44.5818 115.013 45.644 114.193 46.5275 115.013C46.5275 115.013 47.5013 115.877 46.8809 116.629L44.2717 119.622C44.2717 119.622 43.1212 120.609 42.5911 120.079C42.5911 120.079 41.4857 119.637 42.326 118.53L43.2547 116.981V116.983Z" fill="#FFB84C"/>
<path d="M137.759 121.243C138.515 121.356 138.998 121.882 139.254 122.149C139.91 122.836 140.876 123.713 142.416 124.892C142.416 124.892 143.566 127.037 140.778 126.794C140.293 126.507 139.782 126.176 139.258 125.791C138.31 125.095 137.524 124.383 136.885 123.723C136.404 123.454 136.107 122.96 136.114 122.435C136.124 121.841 136.524 121.465 136.598 121.399C136.863 121.292 137.278 121.172 137.757 121.245L137.759 121.243Z" fill="#FFB84C"/>
<path d="M132.239 116.6C132.239 116.6 132.194 115.295 133.367 115.361C133.367 115.361 134.737 115.227 134.805 116.6C134.763 118.835 134.496 120.704 134.224 122.098C133.314 126.755 131.602 129.915 131.222 130.599C130.513 131.876 129.705 133.312 128.242 134.876C125.986 137.288 123.529 138.553 121.979 139.201C121.979 139.201 133.346 126.02 132.241 116.598L132.239 116.6Z" fill="#FFB84C"/>
<path d="M127.24 111.826C127.24 111.826 126.987 110.367 128.391 110.2C128.391 110.2 129.861 110.001 130.028 111.328C130.064 112.779 130.03 114.808 129.709 117.204C128.977 122.66 127.182 126.852 125.881 129.375C124.618 131.826 123.407 133.505 122.452 134.819C120.495 137.511 116.88 141.904 111.186 145.961C109.006 147.513 107.233 148.51 106.716 148.797C101.422 151.732 96.1775 153.209 91.6471 153.922C89.7503 154.183 87.1185 154.396 83.9998 154.166C76.6534 153.627 71.2901 150.976 68.5906 149.609C67.1695 148.889 64.7369 147.566 61.936 145.493C56.8039 141.695 53.3901 137.576 51.2753 134.582C50.2714 133.49 49.5515 132.525 49.0777 131.845C48.0025 130.301 47.7675 129.6 46.8294 128.809C45.8162 127.953 44.771 127.658 44.0717 127.461C40.4661 126.444 36.7872 127.989 35.7157 128.476C35.7157 128.476 32.3658 130.102 31.3695 131.162C31.3695 131.162 29.843 131.926 29.0798 131.328C29.0798 131.328 27.8523 130.3 28.7809 129.106C28.7809 129.106 35.7477 122.968 42.9137 123.897C44.239 124.068 47.1246 124.425 49.386 126.583C50.1286 127.294 50.5102 127.916 51.1418 128.907C52.6664 131.298 54.394 133.557 55.9035 135.96C57.398 138.34 61.0261 142.043 70.5156 147.782C73.5986 149.235 77.832 150.752 83.0016 151.269C96.8336 152.653 107.101 145.853 109.959 143.801C111.747 142.517 115.58 139.539 119.189 134.55C125.721 125.519 126.955 116.219 127.242 111.822L127.24 111.826Z" fill="#FFB84C"/>
<path d="M138.385 130.144C138.385 130.144 139.69 129.216 140.53 129.968C140.53 129.968 141.237 130.498 140.729 131.537C137.9 134.024 133.736 137.536 128.471 141.452C117.949 149.276 112.141 153.596 103.574 156.442C99.2354 157.882 90.5034 160.669 79.4706 158.786C66.8398 156.63 58.5402 149.605 55.1415 146.358C55.1415 146.358 45.3681 135.543 44.5485 135.41C44.5485 135.41 40.6102 131.363 32.9817 136.538C32.9817 136.538 31.0567 137.136 30.7917 136.273C30.7917 136.273 30.1281 135.278 31.1902 134.415C31.1902 134.415 39.1006 127.781 47.0881 133.553C47.0881 133.553 62.1082 155.314 83.0085 156.641C83.0085 156.641 97.0078 158.897 114.789 147.751C118.156 145.437 121.521 143.121 124.888 140.807C129.388 137.254 133.887 133.701 138.387 130.146L138.385 130.144Z" fill="#FFB84C"/>
<path d="M136.516 138.715C136.516 138.715 137.943 138.085 138.308 138.88C138.308 138.88 139.037 139.677 138.308 140.706C138.308 140.706 109.779 166.582 87.0213 164.657C80.9193 164.691 76.229 163.617 73.2382 162.717C62.3406 159.433 52.4676 151.928 48.2079 146.744C47.7417 146.176 46.6213 144.759 44.6907 143.36C41.5851 141.11 38.3067 140.303 35.9982 139.976C35.9982 139.976 34.2518 139.689 34.6485 138.606C34.6485 138.606 34.6259 136.948 36.5283 137.19C37.5942 137.217 38.7729 137.346 40.023 137.653C45.6437 139.027 49.0613 143.057 50.4731 144.977C51.9807 146.772 54.3888 149.374 57.7763 151.977C69.0122 160.611 87.2281 161.91 88.9218 161.875C101.919 161.595 111.098 156.231 120.005 151.026C127.391 146.712 132.88 142.117 136.514 138.719L136.516 138.715Z" fill="#FFB84C"/>
<path d="M131.445 149.85C131.445 149.85 132.551 148.964 133.391 149.938C133.391 149.938 134.098 150.955 133.391 151.53C133.391 151.53 123.638 159.004 118.97 161.194C118.97 161.194 104.473 171.368 86.2948 169.975C80.7849 169.868 76.3597 168.979 73.3068 168.167C70.4475 167.406 58.2755 164.165 49.6695 155.312C48.566 154.177 47.1768 152.594 44.6879 150.726C40.8154 147.817 37.0613 146.302 34.593 145.492C34.593 145.492 33.5027 145.116 33.7227 143.943C33.7227 143.943 33.9652 142.55 35.3807 142.881C35.3807 142.881 43.4096 144.761 49.004 150.622C52.1001 154.106 58.0217 159.822 67.1804 163.631C77.121 167.765 86.2966 167.593 91.8215 167.165C103.249 166.278 111.449 162.164 117.166 159.224C123.403 156.019 128.17 152.532 131.441 149.848L131.445 149.85Z" fill="#FFB84C"/>
<path d="M123.392 161.951C123.392 161.951 126.377 160.758 125.118 163.677C120.245 167.145 115.807 169.281 112.603 170.593C99.2602 176.06 87.5525 175.362 82.7212 175.022C79.8244 174.817 75.6812 174.501 70.4176 172.973C63.2215 170.884 57.8319 167.664 54.3918 165.235C50.852 162.418 47.1243 159.59 43.1991 156.782C41.7441 155.74 40.2947 154.725 38.8548 153.734C38.8548 153.734 37.661 152.364 38.8548 151.7C38.8548 151.7 39.9169 151.17 40.6237 151.7C45.3064 155.308 49.9891 158.913 54.6738 162.521C60.5652 166.185 70.1769 170.96 82.6893 172.18C87.8589 172.683 92.1412 172.447 94.9929 172.153C107.462 170.869 117.175 165.97 123.394 161.951H123.392Z" fill="#FFB84C"/>
<path d="M113.183 172.796C113.183 172.796 115.505 172.597 114.311 174.522C114.311 174.522 111.724 176.844 102.368 179.299C102.368 179.299 81.5358 184.2 61.4326 175.248C61.4326 175.248 52.6086 171.206 47.1683 166.031C47.1683 166.031 46.1738 164.106 47.6984 163.775C47.6984 163.775 48.8263 163.576 50.2193 165.234C50.2193 165.234 62.1357 175.451 79.233 177.376C79.233 177.376 99.2497 180.56 113.183 172.798V172.796Z" fill="#FFB84C"/>
</g>
<path d="M86.2835 96.7533H81.5857V95.5784H82.7606V94.4035H83.9356V95.5784H85.1105V94.4035H86.2854V96.7533H86.2835ZM88.6333 93.2305H85.1105V94.4054H88.6333V93.2305ZM87.4584 104.976H89.8082V103.801H87.4584V104.976ZM88.6333 102.626H89.8082V100.276H88.6333V102.626ZM82.7588 96.7533H81.5839V99.1031H82.7588V96.7533ZM90.9813 93.2305H89.8064V94.4054H90.9813V93.2305ZM94.506 94.4054H93.3311V96.7552H94.506V94.4054ZM87.4584 96.7533H88.6333V95.5784H89.8082V96.7533H92.1581V94.4035H87.4603V96.7533H87.4584ZM79.2359 107.326V106.151H81.5857V104.976H76.888V106.151H78.0629V107.326H79.2378H79.2359ZM79.2359 99.1031H80.4108V96.7533H79.2359V99.1031ZM80.4108 94.4054H79.2359V96.7552H80.4108V94.4054ZM83.9337 101.453H85.1086V100.278H83.9337V101.453H82.7588V100.278H81.5839V102.628H83.9337V101.453ZM82.7588 99.1031H81.5839V100.278H82.7588V99.1031ZM83.9337 106.151V104.976H82.7588V106.151H83.9337ZM85.1086 103.801H86.2835V102.626H83.9337V103.801H81.5839V104.976H85.1086V103.801ZM92.1562 97.9282H90.9813V99.1031H92.1562V97.9282ZM79.2359 100.278H80.4108V99.1031H79.2359V100.278ZM87.4584 100.278H86.2835V102.628H87.4584V100.278ZM85.1086 108.501H87.4584V107.326H85.1086V108.501ZM86.2835 99.1031H85.1086V100.278H86.2835V99.1031ZM86.2835 99.1031V97.9282H85.1086V99.1031H86.2835ZM95.6809 107.326V106.151H98.0307V104.976H85.1105V107.326H86.2854V106.151H87.4603V107.326H88.6352V106.151H92.1599V107.326H95.6847H95.6809ZM83.9337 96.7533V97.9282H85.1086V96.7533H83.9337ZM89.8064 100.278H92.1562V99.1031H89.8064V100.278ZM94.506 96.7533H93.3311V99.1031H94.506V96.7533ZM90.9813 104.976H92.1562V103.801H90.9813V104.976ZM94.506 99.1031H93.3311V100.278H94.506V99.1031ZM100.379 104.976V103.801H99.2038V104.976H100.379ZM94.506 104.976H95.6809V103.801H99.2056V102.626H93.333V103.801H94.5079V104.976H94.506ZM88.6333 97.9282H89.8082V96.7533H88.6333V97.9282ZM92.1562 100.278H90.9813V102.628H92.1562V100.278ZM73.3632 99.1031H72.1883V100.278H73.3632V99.1031ZM99.2038 106.151H100.379V107.326H101.554V104.976H99.2038V106.151ZM93.3311 115.548H94.506V114.373H93.3311V115.548ZM98.0288 108.501H99.2038V110.85H100.379V112.025H101.554V109.675H100.379V108.501H101.554V107.326H98.0288V108.501ZM96.8539 108.501H98.0288V110.85H96.8539V113.2H98.0288V114.375H101.554V122.598H92.1562V121.423H88.6314V120.248H89.8064V119.073H90.9813V117.898H88.6314V116.723H89.8064V115.548H90.9813V114.373H89.8064V115.548H88.6314V116.723H87.4565V117.898H86.2816V115.548H87.4565V114.373H86.2816V113.198H90.9794V110.848H92.1543V112.023H93.3292V109.674H90.9794V110.848H89.8045V109.674H90.9794V108.499H92.1543V107.324H96.8521V108.499H95.6772V109.674H96.8521V108.499L96.8539 108.501ZM93.3311 109.674H94.506V108.499H93.3311V109.674ZM92.1562 116.721H95.6809V113.196H92.1562V116.721ZM96.8539 119.071H95.679V117.896H94.5041V119.071H92.1543V121.421H94.5041V120.246H96.8539V119.071ZM100.379 119.071H99.2038V120.246H98.0288V121.421H100.379V119.071ZM96.8539 114.373V115.548H98.0288V116.723H96.8539V117.898H98.0288V116.723H99.2038V117.898H100.379V116.723H99.2038V115.548H98.0288V114.373H96.8539ZM87.4584 110.848V109.674H85.1086V110.848H83.9337V112.023H82.7588V108.499H81.5839V110.848H80.4089V112.023H79.234V110.848H78.0591V107.324H74.5344V108.499H75.7093V109.674H74.5344V108.499H73.3595V107.324H72.1846V113.196H73.3595V109.672H74.5344V110.847H75.7093V109.672H76.8842V112.022H74.5344V113.196H78.0591V112.022H79.234V113.196H80.4089V112.022H82.7588V113.196H81.5839V114.371H82.7588V115.546H83.9337V116.721H85.1086V114.371H83.9337V112.022H85.1086V113.196H86.2835V110.847H87.4584V110.848ZM88.6333 107.326V108.501H90.9831V107.326H88.6333ZM88.6333 112.023H89.8082V110.848H88.6333V112.023ZM99.2038 95.5784H95.679V96.7533H99.2038V95.5784ZM100.379 96.7533H101.554V94.4035H100.379V96.7533ZM93.3311 93.2305V94.4054H101.554V93.2305H93.3311ZM100.379 99.1031H101.554V96.7533H100.379V99.1031ZM93.3311 101.453H101.554V100.278H93.3311V101.453ZM95.6809 99.1031H99.2056V96.7533H95.6809V99.1031ZM100.379 100.278H101.554V99.1031H100.379V100.278ZM79.2359 107.326V108.501H81.5857V107.326H79.2359ZM73.3632 106.151H74.5382V107.326H75.7131V106.151H74.5382V104.976H73.3632V106.151H72.1883V107.326H73.3632V106.151ZM80.4108 109.674H79.2359V110.848H80.4108V109.674ZM75.7112 104.976H79.2359V103.801H80.4108V102.626H74.5382V103.801H75.7131V104.976H75.7112ZM73.3632 102.626H72.1883V103.801H73.3632V102.626ZM80.4108 100.278H72.1883V101.453H80.4108V100.278ZM78.061 95.5784H74.5363V96.7533H78.061V95.5784ZM73.3632 94.4054H72.1883V96.7552H73.3632V94.4054ZM74.5382 99.1031H78.0629V96.7533H74.5382V99.1031ZM73.3632 96.7533H72.1883V99.1031H73.3632V96.7533ZM72.1883 114.373H80.4108V122.596H72.1883V114.373ZM73.3632 121.421H79.2359V115.548H73.3632V121.421ZM99.2038 112.023H98.0288V113.198H99.2038V112.023ZM81.5857 116.721V120.246H82.7606V121.421H81.5857V122.596H82.7606V121.421H85.1105V122.596H86.2854V120.246H87.4603V119.071H83.9356V120.246H82.7606V115.548H81.5857V116.723V116.721ZM80.4108 93.2305H72.1883V94.4054H80.4108V93.2305ZM74.5382 104.976V103.801H73.3632V104.976H74.5382ZM74.5382 119.071V120.246H78.0629V116.721H74.5382V119.071Z" fill="url(#paint0_linear_1030_304)"/>
<path d="M86.2835 96.7533H81.5857V95.5784H82.7606V94.4035H83.9356V95.5784H85.1105V94.4035H86.2854V96.7533H86.2835ZM88.6333 93.2305H85.1105V94.4054H88.6333V93.2305ZM87.4584 104.976H89.8082V103.801H87.4584V104.976ZM88.6333 102.626H89.8082V100.276H88.6333V102.626ZM82.7588 96.7533H81.5839V99.1031H82.7588V96.7533ZM90.9813 93.2305H89.8064V94.4054H90.9813V93.2305ZM94.506 94.4054H93.3311V96.7552H94.506V94.4054ZM87.4584 96.7533H88.6333V95.5784H89.8082V96.7533H92.1581V94.4035H87.4603V96.7533H87.4584ZM79.2359 107.326V106.151H81.5857V104.976H76.888V106.151H78.0629V107.326H79.2378H79.2359ZM79.2359 99.1031H80.4108V96.7533H79.2359V99.1031ZM80.4108 94.4054H79.2359V96.7552H80.4108V94.4054ZM83.9337 101.453H85.1086V100.278H83.9337V101.453H82.7588V100.278H81.5839V102.628H83.9337V101.453ZM82.7588 99.1031H81.5839V100.278H82.7588V99.1031ZM83.9337 106.151V104.976H82.7588V106.151H83.9337ZM85.1086 103.801H86.2835V102.626H83.9337V103.801H81.5839V104.976H85.1086V103.801ZM92.1562 97.9282H90.9813V99.1031H92.1562V97.9282ZM79.2359 100.278H80.4108V99.1031H79.2359V100.278ZM87.4584 100.278H86.2835V102.628H87.4584V100.278ZM85.1086 108.501H87.4584V107.326H85.1086V108.501ZM86.2835 99.1031H85.1086V100.278H86.2835V99.1031ZM86.2835 99.1031V97.9282H85.1086V99.1031H86.2835ZM95.6809 107.326V106.151H98.0307V104.976H85.1105V107.326H86.2854V106.151H87.4603V107.326H88.6352V106.151H92.1599V107.326H95.6847H95.6809ZM83.9337 96.7533V97.9282H85.1086V96.7533H83.9337ZM89.8064 100.278H92.1562V99.1031H89.8064V100.278ZM94.506 96.7533H93.3311V99.1031H94.506V96.7533ZM90.9813 104.976H92.1562V103.801H90.9813V104.976ZM94.506 99.1031H93.3311V100.278H94.506V99.1031ZM100.379 104.976V103.801H99.2038V104.976H100.379ZM94.506 104.976H95.6809V103.801H99.2056V102.626H93.333V103.801H94.5079V104.976H94.506ZM88.6333 97.9282H89.8082V96.7533H88.6333V97.9282ZM92.1562 100.278H90.9813V102.628H92.1562V100.278ZM73.3632 99.1031H72.1883V100.278H73.3632V99.1031ZM99.2038 106.151H100.379V107.326H101.554V104.976H99.2038V106.151ZM93.3311 115.548H94.506V114.373H93.3311V115.548ZM98.0288 108.501H99.2038V110.85H100.379V112.025H101.554V109.675H100.379V108.501H101.554V107.326H98.0288V108.501ZM96.8539 108.501H98.0288V110.85H96.8539V113.2H98.0288V114.375H101.554V122.598H92.1562V121.423H88.6314V120.248H89.8064V119.073H90.9813V117.898H88.6314V116.723H89.8064V115.548H90.9813V114.373H89.8064V115.548H88.6314V116.723H87.4565V117.898H86.2816V115.548H87.4565V114.373H86.2816V113.198H90.9794V110.848H92.1543V112.023H93.3292V109.674H90.9794V110.848H89.8045V109.674H90.9794V108.499H92.1543V107.324H96.8521V108.499H95.6772V109.674H96.8521V108.499L96.8539 108.501ZM93.3311 109.674H94.506V108.499H93.3311V109.674ZM92.1562 116.721H95.6809V113.196H92.1562V116.721ZM96.8539 119.071H95.679V117.896H94.5041V119.071H92.1543V121.421H94.5041V120.246H96.8539V119.071ZM100.379 119.071H99.2038V120.246H98.0288V121.421H100.379V119.071ZM96.8539 114.373V115.548H98.0288V116.723H96.8539V117.898H98.0288V116.723H99.2038V117.898H100.379V116.723H99.2038V115.548H98.0288V114.373H96.8539ZM87.4584 110.848V109.674H85.1086V110.848H83.9337V112.023H82.7588V108.499H81.5839V110.848H80.4089V112.023H79.234V110.848H78.0591V107.324H74.5344V108.499H75.7093V109.674H74.5344V108.499H73.3595V107.324H72.1846V113.196H73.3595V109.672H74.5344V110.847H75.7093V109.672H76.8842V112.022H74.5344V113.196H78.0591V112.022H79.234V113.196H80.4089V112.022H82.7588V113.196H81.5839V114.371H82.7588V115.546H83.9337V116.721H85.1086V114.371H83.9337V112.022H85.1086V113.196H86.2835V110.847H87.4584V110.848ZM88.6333 107.326V108.501H90.9831V107.326H88.6333ZM88.6333 112.023H89.8082V110.848H88.6333V112.023ZM99.2038 95.5784H95.679V96.7533H99.2038V95.5784ZM100.379 96.7533H101.554V94.4035H100.379V96.7533ZM93.3311 93.2305V94.4054H101.554V93.2305H93.3311ZM100.379 99.1031H101.554V96.7533H100.379V99.1031ZM93.3311 101.453H101.554V100.278H93.3311V101.453ZM95.6809 99.1031H99.2056V96.7533H95.6809V99.1031ZM100.379 100.278H101.554V99.1031H100.379V100.278ZM79.2359 107.326V108.501H81.5857V107.326H79.2359ZM73.3632 106.151H74.5382V107.326H75.7131V106.151H74.5382V104.976H73.3632V106.151H72.1883V107.326H73.3632V106.151ZM80.4108 109.674H79.2359V110.848H80.4108V109.674ZM75.7112 104.976H79.2359V103.801H80.4108V102.626H74.5382V103.801H75.7131V104.976H75.7112ZM73.3632 102.626H72.1883V103.801H73.3632V102.626ZM80.4108 100.278H72.1883V101.453H80.4108V100.278ZM78.061 95.5784H74.5363V96.7533H78.061V95.5784ZM73.3632 94.4054H72.1883V96.7552H73.3632V94.4054ZM74.5382 99.1031H78.0629V96.7533H74.5382V99.1031ZM73.3632 96.7533H72.1883V99.1031H73.3632V96.7533ZM72.1883 114.373H80.4108V122.596H72.1883V114.373ZM73.3632 121.421H79.2359V115.548H73.3632V121.421ZM99.2038 112.023H98.0288V113.198H99.2038V112.023ZM81.5857 116.721V120.246H82.7606V121.421H81.5857V122.596H82.7606V121.421H85.1105V122.596H86.2854V120.246H87.4603V119.071H83.9356V120.246H82.7606V115.548H81.5857V116.723V116.721ZM80.4108 93.2305H72.1883V94.4054H80.4108V93.2305ZM74.5382 104.976V103.801H73.3632V104.976H74.5382ZM74.5382 119.071V120.246H78.0629V116.721H74.5382V119.071Z" fill="black"/>
<path d="M87.042 65.3457C108.685 65.3457 126.229 84.1681 126.229 107.387C126.229 130.605 108.685 149.428 87.042 149.428C65.3995 149.428 47.8545 130.605 47.8545 107.387C47.8545 84.1681 65.3994 65.3459 87.042 65.3457ZM124.132 105.087C124.188 104.28 123.823 102.752 121.898 103.077C121.378 103.183 120.393 103.967 120.63 106.276H120.628C120.925 109.164 120.97 112.508 119.162 118.46C117.354 124.413 113.105 132.272 103.012 138.846C101.829 139.895 100.403 141.968 104.144 141.866C111.37 138.492 125.483 126.414 124.132 105.087ZM52.7812 101.718C50.8695 101.323 50.4484 102.836 50.4766 103.645C48.3563 124.907 62.0248 137.491 69.125 141.127C72.8601 141.364 71.5082 139.24 70.3652 138.149C60.5167 131.213 56.5541 123.204 54.96 117.19C53.3659 111.177 53.5332 107.836 53.9336 104.962V104.96C54.2531 102.661 53.2982 101.84 52.7812 101.718ZM117.959 105.48C118.006 104.809 117.715 103.537 116.18 103.81C115.762 103.896 114.978 104.551 115.164 106.476L115.166 106.474C115.399 108.88 115.433 111.664 113.985 116.625C112.538 121.584 109.143 128.133 101.086 133.618C100.142 134.494 99.0011 136.222 101.986 136.136C107.754 133.32 119.019 123.247 117.959 105.48ZM58.4824 102.658C56.9581 102.329 56.6211 103.592 56.6436 104.264C54.9423 121.979 65.8397 132.457 71.5 135.479C74.4791 135.675 73.4029 133.906 72.4912 132.998C64.6372 127.223 61.4809 120.555 60.2139 115.545C59.1036 111.162 59.0684 108.484 59.291 106.278L59.3994 105.36C59.655 103.445 58.8942 102.76 58.4824 102.658Z" fill="#D8B119"/>
<path d="M87.5278 133.148C101.041 133.148 111.996 122.233 111.996 108.769C111.996 95.3039 101.041 84.3887 87.5278 84.3887C74.0144 84.3887 63.0596 95.3039 63.0596 108.769C63.0596 122.233 74.0144 133.148 87.5278 133.148Z" fill="#FFB84C"/>
<path d="M86.763 97.56H82.0652V96.385H83.2401V95.2101H84.4151V96.385H85.59V95.2101H86.7649V97.56H86.763ZM89.1128 94.0371H85.59V95.212H89.1128V94.0371ZM87.9379 105.782H90.2877V104.608H87.9379V105.782ZM89.1128 103.433H90.2877V101.083H89.1128V103.433ZM83.2383 97.56H82.0633V99.9098H83.2383V97.56ZM91.4608 94.0371H90.2858V95.212H91.4608V94.0371ZM94.9855 95.212H93.8106V97.5618H94.9855V95.212ZM87.9379 97.56H89.1128V96.385H90.2877V97.56H92.6375V95.2101H87.9398V97.56H87.9379ZM79.7154 108.132V106.957H82.0652V105.782H77.3675V106.957H78.5424V108.132H79.7173H79.7154ZM79.7154 99.9098H80.8903V97.56H79.7154V99.9098ZM80.8903 95.212H79.7154V97.5618H80.8903V95.212ZM84.4132 102.26H85.5881V101.085H84.4132V102.26H83.2383V101.085H82.0633V103.435H84.4132V102.26ZM83.2383 99.9098H82.0633V101.085H83.2383V99.9098ZM84.4132 106.957V105.782H83.2383V106.957H84.4132ZM85.5881 104.608H86.763V103.433H84.4132V104.608H82.0633V105.782H85.5881V104.608ZM92.6357 98.7349H91.4608V99.9098H92.6357V98.7349ZM79.7154 101.085H80.8903V99.9098H79.7154V101.085ZM87.9379 101.085H86.763V103.435H87.9379V101.085ZM85.5881 109.307H87.9379V108.132H85.5881V109.307ZM86.763 99.9098H85.5881V101.085H86.763V99.9098ZM86.763 99.9098V98.7349H85.5881V99.9098H86.763ZM96.1604 108.132V106.957H98.5102V105.782H85.59V108.132H86.7649V106.957H87.9398V108.132H89.1147V106.957H92.6394V108.132H96.1642H96.1604ZM84.4132 97.56V98.7349H85.5881V97.56H84.4132ZM90.2858 101.085H92.6357V99.9098H90.2858V101.085ZM94.9855 97.56H93.8106V99.9098H94.9855V97.56ZM91.4608 105.782H92.6357V104.608H91.4608V105.782ZM94.9855 99.9098H93.8106V101.085H94.9855V99.9098ZM100.858 105.782V104.608H99.6832V105.782H100.858ZM94.9855 105.782H96.1604V104.608H99.6851V103.433H93.8125V104.608H94.9874V105.782H94.9855ZM89.1128 98.7349H90.2877V97.56H89.1128V98.7349ZM92.6357 101.085H91.4608V103.435H92.6357V101.085ZM73.8427 99.9098H72.6678V101.085H73.8427V99.9098ZM99.6832 106.957H100.858V108.132H102.033V105.782H99.6832V106.957ZM93.8106 116.355H94.9855V115.18H93.8106V116.355ZM98.5083 109.307H99.6832V111.657H100.858V112.832H102.033V110.482H100.858V109.307H102.033V108.132H98.5083V109.307ZM97.3334 109.307H98.5083V111.657H97.3334V114.007H98.5083V115.182H102.033V123.404H92.6357V122.229H89.1109V121.054H90.2858V119.88H91.4608V118.705H89.1109V117.53H90.2858V116.355H91.4608V115.18H90.2858V116.355H89.1109V117.53H87.936V118.705H86.7611V116.355H87.936V115.18H86.7611V114.005H91.4589V111.655H92.6338V112.83H93.8087V110.48H91.4589V111.655H90.284V110.48H91.4589V109.305H92.6338V108.13H97.3316V109.305H96.1566V110.48H97.3316V109.305L97.3334 109.307ZM93.8106 110.48H94.9855V109.305H93.8106V110.48ZM92.6357 117.528H96.1604V114.003H92.6357V117.528ZM97.3334 119.878H96.1585V118.703H94.9836V119.878H92.6338V122.227H94.9836V121.053H97.3334V119.878ZM100.858 119.878H99.6832V121.053H98.5083V122.227H100.858V119.878ZM97.3334 115.18V116.355H98.5083V117.53H97.3334V118.705H98.5083V117.53H99.6832V118.705H100.858V117.53H99.6832V116.355H98.5083V115.18H97.3334ZM87.9379 111.655V110.48H85.5881V111.655H84.4132V112.83H83.2383V109.305H82.0633V111.655H80.8884V112.83H79.7135V111.655H78.5386V108.13H75.0139V109.305H76.1888V110.48H75.0139V109.305H73.839V108.13H72.6641V114.003H73.839V110.478H75.0139V111.653H76.1888V110.478H77.3637V112.828H75.0139V114.003H78.5386V112.828H79.7135V114.003H80.8884V112.828H83.2383V114.003H82.0633V115.178H83.2383V116.353H84.4132V117.528H85.5881V115.178H84.4132V112.828H85.5881V114.003H86.763V111.653H87.9379V111.655ZM89.1128 108.132V109.307H91.4626V108.132H89.1128ZM89.1128 112.83H90.2877V111.655H89.1128V112.83ZM99.6832 96.385H96.1585V97.56H99.6832V96.385ZM100.858 97.56H102.033V95.2101H100.858V97.56ZM93.8106 94.0371V95.212H102.033V94.0371H93.8106ZM100.858 99.9098H102.033V97.56H100.858V99.9098ZM93.8106 102.26H102.033V101.085H93.8106V102.26ZM96.1604 99.9098H99.6851V97.56H96.1604V99.9098ZM100.858 101.085H102.033V99.9098H100.858V101.085ZM79.7154 108.132V109.307H82.0652V108.132H79.7154ZM73.8427 106.957H75.0176V108.132H76.1926V106.957H75.0176V105.782H73.8427V106.957H72.6678V108.132H73.8427V106.957ZM80.8903 110.48H79.7154V111.655H80.8903V110.48ZM76.1907 105.782H79.7154V104.608H80.8903V103.433H75.0176V104.608H76.1926V105.782H76.1907ZM73.8427 103.433H72.6678V104.608H73.8427V103.433ZM80.8903 101.085H72.6678V102.26H80.8903V101.085ZM78.5405 96.385H75.0158V97.56H78.5405V96.385ZM73.8427 95.212H72.6678V97.5618H73.8427V95.212ZM75.0176 99.9098H78.5424V97.56H75.0176V99.9098ZM73.8427 97.56H72.6678V99.9098H73.8427V97.56ZM72.6678 115.18H80.8903V123.402H72.6678V115.18ZM73.8427 122.227H79.7154V116.355H73.8427V122.227ZM99.6832 112.83H98.5083V114.005H99.6832V112.83ZM82.0652 117.528V121.053H83.2401V122.227H82.0652V123.402H83.2401V122.227H85.59V123.402H86.7649V121.053H87.9398V119.878H84.4151V121.053H83.2401V116.355H82.0652V117.53V117.528ZM80.8903 94.0371H72.6678V95.212H80.8903V94.0371ZM75.0176 105.782V104.608H73.8427V105.782H75.0176ZM75.0176 119.878V121.053H78.5424V117.528H75.0176V119.878Z" fill="black"/>
<path d="M60.7304 99.719L60.4597 99.6024L60.4991 99.2979C60.5217 99.1043 60.4954 98.9652 60.4202 98.8806C60.3393 98.7847 60.2096 98.6982 60.0292 98.6193C59.5366 98.3956 59.0404 98.1756 58.5441 97.9594C58.0478 97.7433 57.5459 97.5252 57.0402 97.3071L56.5138 97.0778C56.0176 96.8616 55.5194 96.6454 55.0231 96.4311C54.5268 96.2149 54.0268 96.0044 53.5267 95.7957C53.3463 95.7168 53.1996 95.6792 53.0869 95.681C52.9647 95.681 52.8425 95.7525 52.7165 95.9029L52.5041 96.1473L52.2334 96.0307L53.7862 92.427C54.2185 91.4232 54.743 90.7351 55.3615 90.361C55.9743 89.9757 56.6247 89.9324 57.3109 90.2295C57.6887 90.393 58.0046 90.7088 58.2602 91.1769C58.5196 91.6356 58.6212 92.2146 58.5648 92.9139L62.7249 92.6432C63.0708 92.6206 63.3603 92.4759 63.5971 92.2127L63.7532 91.9909L64.0107 92.1018L63.0294 94.3802L58.1925 94.5569L57.794 95.4837C58.4031 95.7487 58.9501 95.9856 59.4389 96.198C59.9277 96.4104 60.3882 96.6059 60.8206 96.7826C60.9917 96.8578 61.1402 96.8917 61.2661 96.8842C61.3939 96.8691 61.5161 96.7883 61.6289 96.6435L61.8526 96.3728L62.1233 96.4894L60.7322 99.7209L60.7304 99.719ZM57.4237 95.3182L57.7226 94.6227C57.9858 94.0136 58.0234 93.5004 57.8354 93.0831C57.6493 92.6658 57.2395 92.3199 56.6041 92.0435C55.9706 91.7672 55.4442 91.7033 55.025 91.8461C54.602 91.9777 54.2618 92.3443 54.0023 92.9459L53.6865 93.679C54.0211 93.8237 54.3614 93.9779 54.7092 94.1377C55.0513 94.2862 55.4423 94.4554 55.8784 94.6452C56.3071 94.8314 56.8203 95.0551 57.4199 95.3145L57.4237 95.3182Z" fill="black"/>
<path d="M110.774 94.234L111.045 94.1193L111.237 94.358C111.361 94.5084 111.479 94.5855 111.592 94.5874C111.716 94.5949 111.87 94.5611 112.051 94.484C112.553 94.281 113.053 94.0723 113.553 93.8618C114.051 93.6493 114.555 93.4369 115.062 93.2207L115.591 92.997C116.089 92.7846 116.589 92.574 117.087 92.3616C117.585 92.1492 118.083 91.933 118.578 91.7131C118.758 91.636 118.886 91.557 118.963 91.4724C119.048 91.386 119.08 91.245 119.059 91.0514L119.029 90.7299L119.3 90.6152L120.822 94.2321C121.247 95.2397 121.381 96.0969 121.221 96.8037C121.074 97.5162 120.659 98.0181 119.971 98.3095C119.593 98.4712 119.145 98.4824 118.632 98.3452C118.121 98.2174 117.634 97.8903 117.172 97.3677L114.493 100.577C114.271 100.844 114.173 101.154 114.201 101.507L114.254 101.774L113.996 101.883L113.034 99.5972L116.247 95.9634L115.856 95.0329C115.245 95.2923 114.696 95.5254 114.205 95.7341C113.715 95.9427 113.258 96.142 112.831 96.3338C112.66 96.4071 112.532 96.4917 112.451 96.5875C112.374 96.6909 112.348 96.8338 112.374 97.0161L112.414 97.3639L112.143 97.4786L110.776 94.2377L110.774 94.234ZM116.228 94.8694L116.521 95.5668C116.779 96.1777 117.123 96.5593 117.551 96.7135C117.98 96.8658 118.514 96.8075 119.149 96.5368C119.785 96.2661 120.196 95.9296 120.38 95.5254C120.578 95.1269 120.55 94.6269 120.296 94.0234L119.986 93.2865C119.651 93.4294 119.305 93.5704 118.948 93.7114C118.604 93.858 118.213 94.0234 117.775 94.2095C117.345 94.3919 116.829 94.6118 116.228 94.8675V94.8694Z" fill="black"/>
<path d="M69.7112 85.1445L69.5777 84.8663L69.7939 84.6689C69.9293 84.5411 70.0007 84.4076 70.0063 84.2704C70.0082 84.1237 69.965 83.9583 69.8766 83.7722L66.8801 77.516C66.7993 77.3469 66.7128 77.2228 66.6226 77.1419C66.5286 77.0517 66.382 77.0198 66.1865 77.0423L65.8425 77.0686L65.709 76.7904L68.119 75.6268L73.4521 80.661L72.7265 73.4029L75.1872 72.2148L75.3207 72.4931L75.1496 72.6547C75.0143 72.7826 74.9428 72.916 74.9372 73.0533C74.9259 73.183 74.9616 73.3315 75.0425 73.5007C75.2681 73.9932 75.4974 74.4838 75.7324 74.9726C75.9617 75.4538 76.1967 75.9407 76.4354 76.4389L76.6836 76.9577C76.9167 77.4465 77.1517 77.9352 77.3848 78.424C77.6198 78.9128 77.8547 79.3959 78.0935 79.8715C78.1781 80.0482 78.2646 80.1723 78.351 80.2456C78.4375 80.3189 78.5747 80.3452 78.7627 80.3264L79.0579 80.2926L79.1913 80.5708L76.1253 82.0521L75.9918 81.7739L76.2268 81.5521C76.3584 81.4167 76.4185 81.2927 76.4072 81.1836C76.4016 81.0615 76.3565 80.9167 76.2775 80.7494L74.9635 78.0067L73.3675 74.6079L74.2078 82.9789L73.501 83.3192L67.4103 77.5781L68.8408 80.4355L70.3428 83.5692C70.4312 83.7553 70.5271 83.8888 70.6304 83.9752C70.7338 84.0598 70.8748 84.0861 71.0553 84.0504L71.3504 84.0166L71.4839 84.2948L69.7168 85.1483L69.7112 85.1445Z" fill="black"/>
<path d="M74.5125 144.064L74.5632 143.759L74.8527 143.724C75.037 143.697 75.1723 143.632 75.2569 143.523C75.3434 143.404 75.4035 143.244 75.4374 143.041L76.5841 136.2C76.6142 136.016 76.616 135.866 76.5897 135.747C76.5634 135.62 76.4638 135.509 76.2908 135.413L75.9938 135.234L76.0446 134.93L78.6839 135.375L80.1483 142.573L83.7257 136.229L86.4195 136.684L86.3687 136.988L86.1356 137.02C85.9514 137.046 85.8179 137.112 85.7333 137.221C85.6506 137.321 85.5924 137.464 85.5623 137.648C85.4626 138.182 85.3687 138.714 85.2803 139.25C85.1919 139.774 85.1017 140.31 85.0115 140.853L84.9156 141.419C84.8254 141.953 84.737 142.489 84.6468 143.022C84.5566 143.556 84.4738 144.088 84.3949 144.615C84.3629 144.808 84.361 144.961 84.3892 145.07C84.4193 145.179 84.5152 145.28 84.6787 145.374L84.9382 145.517L84.8874 145.822L81.53 145.254L81.5807 144.949L81.9003 144.904C82.0864 144.868 82.2067 144.805 82.2594 144.709C82.3233 144.605 82.3722 144.462 82.4022 144.278L82.9042 141.28L83.5527 137.58L79.4283 144.899L78.6538 144.767L76.9751 136.554L76.5014 139.714L75.9261 143.141C75.8923 143.344 75.8923 143.509 75.928 143.639C75.9637 143.769 76.0652 143.87 76.2325 143.945L76.492 144.088L76.4412 144.393L74.5068 144.066L74.5125 144.064Z" fill="black"/>
<path d="M88.8369 79.4401L88.9102 79.1412L89.2016 79.1262C89.3877 79.113 89.5268 79.0566 89.6189 78.9533C89.7129 78.8423 89.7844 78.6863 89.8332 78.4871L91.4612 71.744C91.5044 71.5617 91.5176 71.4113 91.4988 71.291C91.4819 71.1612 91.3898 71.0428 91.2243 70.9357L90.9405 70.7364L91.0138 70.4375L93.6136 71.071L94.5648 78.3555L98.5821 72.2816L101.236 72.9283L101.165 73.2272L100.93 73.2422C100.744 73.2554 100.605 73.3118 100.513 73.4152C100.422 73.5092 100.357 73.6464 100.312 73.8269C100.176 74.3514 100.045 74.8777 99.9168 75.4041C99.7908 75.921 99.6649 76.4493 99.5352 76.985L99.3998 77.5434C99.272 78.0697 99.1461 78.5961 99.0182 79.1243C98.8904 79.6507 98.7701 80.1752 98.6535 80.694C98.6065 80.8839 98.5953 81.0361 98.6159 81.147C98.6366 81.258 98.7268 81.367 98.8829 81.4723L99.1329 81.6339L99.0615 81.9328L95.7529 81.1264L95.8262 80.8275L96.1496 80.8049C96.3376 80.7842 96.4616 80.7278 96.5218 80.6357C96.5932 80.538 96.6515 80.3989 96.6947 80.2165L97.4091 77.2614L98.317 73.6182L93.6851 80.6244L92.9218 80.4383L91.8296 72.1237L91.1341 75.2424L90.3182 78.6205C90.2694 78.8198 90.2581 78.9852 90.2844 79.1168C90.3107 79.2484 90.4047 79.3574 90.5664 79.4458L90.8164 79.6074L90.7431 79.9063L88.8369 79.442V79.4401Z" fill="black"/>
<path d="M99.4834 82.3605L99.6526 82.1199L99.8763 82.1914C100.079 82.244 100.243 82.2384 100.365 82.1763C100.495 82.1199 100.621 82.0071 100.737 81.8398C101.051 81.4093 101.359 80.9751 101.664 80.539C101.974 80.0953 102.286 79.6517 102.596 79.208L102.886 78.7945C103.196 78.3508 103.501 77.9072 103.8 77.4654C104.11 77.0217 104.422 76.5781 104.732 76.1345C104.86 75.9502 104.931 75.7942 104.941 75.6645C104.958 75.5273 104.899 75.3731 104.77 75.2002L104.627 75.0141L104.796 74.7734L108.024 77.0518C108.939 77.6985 109.482 78.3395 109.653 78.9749C109.83 79.6028 109.736 80.1761 109.371 80.6969C109.093 81.0954 108.697 81.3529 108.181 81.4695C107.672 81.5785 107.007 81.4469 106.185 81.0728C106.96 81.7571 107.415 82.4038 107.548 83.0129C107.681 83.6219 107.572 84.1746 107.225 84.6709C107.054 84.9153 106.826 85.1277 106.542 85.3044C106.264 85.4736 105.924 85.5695 105.52 85.5939C105.123 85.6221 104.662 85.5488 104.136 85.3721C103.615 85.1878 103.023 84.8608 102.36 84.3927L99.4853 82.3643L99.4834 82.3605ZM104.593 79.8265L105.13 80.2062C105.649 80.5728 106.104 80.7213 106.493 80.6536C106.896 80.5841 107.296 80.2645 107.693 79.6987C108.104 79.1084 108.287 78.6215 108.24 78.2324C108.193 77.8451 107.939 77.488 107.482 77.1646L106.796 76.6796L104.595 79.8246L104.593 79.8265ZM101.948 83.6031L102.578 84.0468C103.151 84.4509 103.677 84.6107 104.157 84.528C104.638 84.4434 105.097 84.0881 105.537 83.4603C105.96 82.8549 106.119 82.3342 106.016 81.8943C105.926 81.4526 105.57 81.0146 104.954 80.5784L104.358 80.1574L101.948 83.6013V83.6031Z" fill="black"/>
<path d="M64.5903 92.21L64.3986 91.9788L64.4964 91.7495C64.6317 91.4374 64.5866 91.1385 64.361 90.8547L61.8345 87.8149C61.513 87.4277 61.1615 87.0141 60.7818 86.5799C60.4077 86.1362 60.0486 85.7133 59.7065 85.3072C59.4527 85.0121 59.1576 84.967 58.8192 85.1737L58.697 85.2546L58.5146 85.0121L62.4999 80.1602L64.1561 81.9874L63.9249 82.2694L62.8797 81.7317C62.6071 81.5907 62.3646 81.5419 62.1503 81.5832C61.9416 81.617 61.733 81.7599 61.5262 82.0118L60.4321 83.3446L62.9586 86.3844L63.7143 85.4632C63.97 85.1531 64.0377 84.7978 63.9192 84.3955L63.6993 83.6492L63.8854 83.4217L65.6487 85.5366L65.4626 85.764L64.9663 85.5516C64.5734 85.3824 64.2426 85.4614 63.9756 85.7866L63.2199 86.7077C63.6467 87.219 64.0922 87.751 64.5546 88.3056C65.019 88.8601 65.4795 89.394 65.9401 89.9091L67.3199 88.2304C67.5041 88.0067 67.6169 87.7792 67.662 87.5499C67.7053 87.3205 67.6808 87.0498 67.585 86.7397L67.1376 85.2771L67.3688 84.9952L68.8915 86.984L64.596 92.2138L64.5903 92.21Z" fill="black"/>
<path d="M80.4863 80.358L80.4562 80.0648L80.725 79.9388C80.8867 79.8749 80.9957 79.7847 81.0484 79.6662C81.101 79.5384 81.1217 79.373 81.1085 79.1662L80.3829 72.1543C80.3528 71.9607 80.3058 71.8141 80.24 71.7182C80.1724 71.6129 80.0483 71.5415 79.8659 71.5039L79.5633 71.4362L79.5332 71.143L86.1672 70.4512L86.4962 72.6713L86.1052 72.7126L85.4172 71.5171C85.325 71.3479 85.2273 71.2219 85.1239 71.1392C85.0205 71.0471 84.8758 71.0095 84.6896 71.0302L82.321 71.2783C82.3718 71.8554 82.4282 72.4513 82.4921 73.0642C82.5541 73.6676 82.6256 74.3519 82.7045 75.1132L84.0843 74.9685C84.2704 74.9497 84.4039 74.8876 84.4885 74.7861C84.5806 74.6733 84.6596 74.5286 84.7254 74.3519L84.9077 73.7973L85.2141 73.7654L85.4811 76.3445L85.1747 76.3765L84.8682 75.8727C84.7761 75.7129 84.6784 75.5869 84.575 75.4948C84.4716 75.4027 84.3268 75.3651 84.1407 75.3858L82.7478 75.5306C82.8173 76.1998 82.8775 76.775 82.9263 77.2581C82.9771 77.7413 83.0203 78.1736 83.0598 78.5552C83.1068 78.9256 83.15 79.2921 83.1876 79.655L85.8646 79.3749C86.0507 79.3561 86.1898 79.294 86.2819 79.1906C86.374 79.0778 86.4436 78.9293 86.4887 78.747L86.874 77.4386L87.2651 77.3972L87.3985 79.638L80.4863 80.3599V80.358Z" fill="black"/>
<path d="M89.9397 145.723L89.8721 145.438L90.1221 145.278C90.2743 145.193 90.3702 145.09 90.4078 144.966C90.4435 144.832 90.4417 144.665 90.4041 144.462L88.7893 137.601C88.7347 137.413 88.669 137.273 88.5919 137.187C88.511 137.091 88.3795 137.037 88.1934 137.022L87.8851 136.993L87.8174 136.708L94.3085 135.168L94.9176 137.328L94.536 137.418L93.7013 136.32C93.5885 136.164 93.4758 136.051 93.363 135.984C93.2483 135.905 93.0998 135.888 92.9193 135.931L90.6015 136.482C90.7255 137.048 90.8571 137.631 90.9981 138.232C91.1372 138.822 91.2951 139.492 91.4699 140.238L92.8197 139.918C93.002 139.875 93.128 139.798 93.1957 139.685C93.2727 139.561 93.331 139.409 93.3761 139.225L93.4851 138.651L93.7859 138.58L94.38 141.103L94.0792 141.174L93.7126 140.714C93.6017 140.567 93.4889 140.454 93.3742 140.377C93.2596 140.298 93.1111 140.281 92.9306 140.324L91.5677 140.648C91.7218 141.302 91.8534 141.866 91.9662 142.34C92.0771 142.813 92.1768 143.234 92.2651 143.609C92.3591 143.969 92.4493 144.329 92.5321 144.684L95.1507 144.063C95.333 144.02 95.4628 143.941 95.5417 143.827C95.6188 143.703 95.6677 143.546 95.6902 143.359L95.9064 142.011L96.288 141.92L96.7053 144.125L89.9416 145.731L89.9397 145.723Z" fill="black"/>
<path d="M106.343 87.5489L106.572 87.3647L106.824 87.5226C106.965 87.6241 107.1 87.6655 107.228 87.6467C107.364 87.6222 107.514 87.5489 107.679 87.4267L113.169 83.0034C113.315 82.8737 113.411 82.7534 113.456 82.6463C113.509 82.5316 113.501 82.3887 113.434 82.2139L113.326 81.9225L113.556 81.7383L117.72 86.9492L116.035 88.4325L115.791 88.126L116.423 86.8966C116.515 86.7274 116.567 86.577 116.582 86.4454C116.603 86.3082 116.556 86.1672 116.439 86.0206L114.953 84.1595C114.496 84.5148 114.028 84.887 113.546 85.2743C113.073 85.6559 112.539 86.0864 111.943 86.5676L112.809 87.6523C112.926 87.7989 113.05 87.8779 113.182 87.8929C113.326 87.908 113.49 87.8967 113.672 87.8572L114.236 87.7087L114.428 87.9493L112.409 89.5754L112.217 89.3348L112.475 88.8028C112.559 88.6392 112.612 88.4889 112.635 88.3516C112.655 88.2144 112.608 88.0715 112.492 87.9268L111.618 86.8327C111.093 87.2557 110.642 87.6185 110.264 87.923C109.886 88.2276 109.548 88.5001 109.249 88.7407C108.963 88.9833 108.679 89.2182 108.396 89.4457L110.074 91.5474C110.191 91.694 110.319 91.7767 110.454 91.7993C110.599 91.8143 110.76 91.7936 110.939 91.7316L112.246 91.3462L112.49 91.6526L110.683 92.9836L106.345 87.5527L106.343 87.5489Z" fill="black"/>
<defs>
<filter id="filter0_d_1030_304" x="-9.91821e-05" y="-2.33897" width="171.591" height="209.676" filterUnits="userSpaceOnUse" color-interpolation-filters="sRGB">
<feFlood flood-opacity="0" result="BackgroundImageFix"/>
<feColorMatrix in="SourceAlpha" type="matrix" values="0 0 0 0 0 0 0 0 0 0 0 0 0 0 0 0 0 0 127 0" result="hardAlpha"/>
<feOffset/>
<feGaussianBlur stdDeviation="13.3501"/>
<feComposite in2="hardAlpha" operator="out"/>
<feColorMatrix type="matrix" values="0 0 0 0 1 0 0 0 0 0.721569 0 0 0 0 0.298039 0 0 0 1 0"/>
<feBlend mode="normal" in2="BackgroundImageFix" result="effect1_dropShadow_1030_304"/>
<feBlend mode="normal" in="SourceGraphic" in2="effect1_dropShadow_1030_304" result="shape"/>
</filter>
<linearGradient id="paint0_linear_1030_304" x1="72.1883" y1="107.912" x2="101.554" y2="107.912" gradientUnits="userSpaceOnUse">
<stop stop-color="#2E3192"/>
<stop offset="1"/>
</linearGradient>
</defs>
</svg>
